<mxfile host="Electron" agent="Mozilla/5.0 (Windows NT 10.0; Win64; x64) AppleWebKit/537.36 (KHTML, like Gecko) draw.io/26.0.9 Chrome/128.0.6613.186 Electron/32.2.5 Safari/537.36" version="26.0.9">
  <diagram id="Ht1M8jgEwFfnCIfOTk4-" name="Page-1">
    <mxGraphModel dx="1434" dy="876" grid="1" gridSize="10" guides="1" tooltips="1" connect="1" arrows="1" fold="1" page="1" pageScale="1" pageWidth="1169" pageHeight="827" math="0" shadow="0">
      <root>
        <mxCell id="0" />
        <mxCell id="1" parent="0" />
        <mxCell id="UEzPUAAOIrF-is8g5C7q-74" value="&lt;font style=&quot;font-size: 18px;&quot;&gt;&lt;b&gt;AWS Cloud&lt;/b&gt;&lt;/font&gt;" style="points=[[0,0],[0.25,0],[0.5,0],[0.75,0],[1,0],[1,0.25],[1,0.5],[1,0.75],[1,1],[0.75,1],[0.5,1],[0.25,1],[0,1],[0,0.75],[0,0.5],[0,0.25]];outlineConnect=0;gradientColor=none;html=1;whiteSpace=wrap;fontSize=12;fontStyle=0;shape=mxgraph.aws4.group;grIcon=mxgraph.aws4.group_aws_cloud_alt;strokeColor=#3B3B3B;fillColor=none;verticalAlign=top;align=left;spacingLeft=30;fontColor=#232F3E;dashed=0;labelBackgroundColor=#ffffff;container=1;pointerEvents=0;collapsible=0;recursiveResize=0;strokeWidth=5;" parent="1" vertex="1">
          <mxGeometry x="60" y="114" width="740" height="600" as="geometry" />
        </mxCell>
        <mxCell id="JLbmtNQdSOqGrpvgNe5l-7" value="&lt;font style=&quot;font-size: 19px;&quot;&gt;&lt;b&gt;VPC&lt;/b&gt;&lt;/font&gt;" style="sketch=0;outlineConnect=0;gradientColor=none;html=1;whiteSpace=wrap;fontSize=12;fontStyle=0;shape=mxgraph.aws4.group;grIcon=mxgraph.aws4.group_vpc;strokeColor=#879196;fillColor=none;verticalAlign=top;align=left;spacingLeft=30;fontColor=#879196;dashed=0;" vertex="1" parent="UEzPUAAOIrF-is8g5C7q-74">
          <mxGeometry x="25" y="50" width="690" height="510" as="geometry" />
        </mxCell>
        <mxCell id="JLbmtNQdSOqGrpvgNe5l-9" value="&lt;font style=&quot;font-size: 18px;&quot;&gt;&lt;b&gt;Subnet&lt;/b&gt;&lt;/font&gt;" style="sketch=0;outlineConnect=0;gradientColor=none;html=1;whiteSpace=wrap;fontSize=12;fontStyle=0;shape=mxgraph.aws4.group;grIcon=mxgraph.aws4.group_subnet;strokeColor=#879196;fillColor=none;verticalAlign=top;align=left;spacingLeft=30;fontColor=#879196;dashed=0;" vertex="1" parent="UEzPUAAOIrF-is8g5C7q-74">
          <mxGeometry x="80" y="100" width="580" height="430" as="geometry" />
        </mxCell>
        <mxCell id="JLbmtNQdSOqGrpvgNe5l-2" value="Amazon EC2" style="sketch=0;outlineConnect=0;fontColor=#232F3E;gradientColor=none;strokeColor=#ffffff;fillColor=#232F3E;dashed=0;verticalLabelPosition=middle;verticalAlign=bottom;align=center;html=1;whiteSpace=wrap;fontSize=10;fontStyle=1;spacing=3;shape=mxgraph.aws4.productIcon;prIcon=mxgraph.aws4.ec2;" vertex="1" parent="UEzPUAAOIrF-is8g5C7q-74">
          <mxGeometry x="120" y="155" width="108" height="135" as="geometry" />
        </mxCell>
        <mxCell id="JLbmtNQdSOqGrpvgNe5l-41" value="" style="edgeStyle=none;curved=1;rounded=0;orthogonalLoop=1;jettySize=auto;html=1;fontSize=12;startSize=8;endSize=8;startArrow=classic;startFill=1;" edge="1" parent="UEzPUAAOIrF-is8g5C7q-74" source="JLbmtNQdSOqGrpvgNe5l-3" target="JLbmtNQdSOqGrpvgNe5l-2">
          <mxGeometry relative="1" as="geometry" />
        </mxCell>
        <mxCell id="JLbmtNQdSOqGrpvgNe5l-3" value="" style="sketch=0;pointerEvents=1;shadow=0;dashed=0;html=1;strokeColor=none;fillColor=#FFB570;labelPosition=center;verticalLabelPosition=bottom;verticalAlign=top;align=center;outlineConnect=0;shape=mxgraph.veeam2.open_vpn;" vertex="1" parent="UEzPUAAOIrF-is8g5C7q-74">
          <mxGeometry x="361.42" y="155" width="135" height="135" as="geometry" />
        </mxCell>
        <mxCell id="JLbmtNQdSOqGrpvgNe5l-11" value="" style="points=[];aspect=fixed;html=1;align=center;shadow=0;dashed=0;fillColor=#FF6A00;strokeColor=none;shape=mxgraph.alibaba_cloud.route_table;" vertex="1" parent="UEzPUAAOIrF-is8g5C7q-74">
          <mxGeometry x="280" y="331.88" width="95.92" height="121.25" as="geometry" />
        </mxCell>
        <mxCell id="JLbmtNQdSOqGrpvgNe5l-16" value="" style="outlineConnect=0;dashed=0;verticalLabelPosition=bottom;verticalAlign=top;align=center;html=1;shape=mxgraph.aws3.internet_gateway;fillColor=#F58534;gradientColor=none;" vertex="1" parent="UEzPUAAOIrF-is8g5C7q-74">
          <mxGeometry x="490" y="337.76" width="104.94" height="109.5" as="geometry" />
        </mxCell>
        <mxCell id="JLbmtNQdSOqGrpvgNe5l-39" value="" style="edgeStyle=none;curved=1;rounded=0;orthogonalLoop=1;jettySize=auto;html=1;fontSize=12;startSize=8;endSize=8;" edge="1" parent="UEzPUAAOIrF-is8g5C7q-74" source="JLbmtNQdSOqGrpvgNe5l-20" target="JLbmtNQdSOqGrpvgNe5l-3">
          <mxGeometry relative="1" as="geometry" />
        </mxCell>
        <mxCell id="JLbmtNQdSOqGrpvgNe5l-20" value="&lt;b&gt;OpenVPN&lt;/b&gt;" style="text;strokeColor=none;fillColor=none;html=1;align=center;verticalAlign=middle;whiteSpace=wrap;rounded=0;fontSize=16;" vertex="1" parent="UEzPUAAOIrF-is8g5C7q-74">
          <mxGeometry x="375.92" y="125" width="106" height="30" as="geometry" />
        </mxCell>
        <mxCell id="JLbmtNQdSOqGrpvgNe5l-21" value="&lt;b&gt;Route Table&lt;/b&gt;" style="text;strokeColor=none;fillColor=none;html=1;align=center;verticalAlign=middle;whiteSpace=wrap;rounded=0;fontSize=16;" vertex="1" parent="UEzPUAAOIrF-is8g5C7q-74">
          <mxGeometry x="269.92" y="460" width="106" height="30" as="geometry" />
        </mxCell>
        <mxCell id="JLbmtNQdSOqGrpvgNe5l-22" value="&lt;b&gt;Internet Gateway&lt;/b&gt;" style="text;strokeColor=none;fillColor=none;html=1;align=center;verticalAlign=middle;whiteSpace=wrap;rounded=0;fontSize=16;" vertex="1" parent="UEzPUAAOIrF-is8g5C7q-74">
          <mxGeometry x="490" y="460" width="110" height="30" as="geometry" />
        </mxCell>
        <mxCell id="JLbmtNQdSOqGrpvgNe5l-34" value="" style="endArrow=none;html=1;rounded=0;fontSize=12;startSize=8;endSize=8;curved=1;startArrow=classic;startFill=1;" edge="1" parent="UEzPUAAOIrF-is8g5C7q-74">
          <mxGeometry width="50" height="50" relative="1" as="geometry">
            <mxPoint x="171" y="289" as="sourcePoint" />
            <mxPoint x="171" y="397" as="targetPoint" />
          </mxGeometry>
        </mxCell>
        <mxCell id="JLbmtNQdSOqGrpvgNe5l-35" value="" style="endArrow=block;html=1;rounded=0;fontSize=12;curved=1;strokeWidth=2;startArrow=none;startFill=0;endFill=1;" edge="1" parent="UEzPUAAOIrF-is8g5C7q-74">
          <mxGeometry width="50" height="50" relative="1" as="geometry">
            <mxPoint x="171" y="396" as="sourcePoint" />
            <mxPoint x="279" y="396" as="targetPoint" />
          </mxGeometry>
        </mxCell>
        <mxCell id="JLbmtNQdSOqGrpvgNe5l-36" value="" style="endArrow=classic;startArrow=classic;html=1;rounded=0;fontSize=12;startSize=8;endSize=8;curved=1;exitX=0.97;exitY=0.562;exitDx=0;exitDy=0;exitPerimeter=0;" edge="1" parent="UEzPUAAOIrF-is8g5C7q-74" source="JLbmtNQdSOqGrpvgNe5l-11">
          <mxGeometry width="50" height="50" relative="1" as="geometry">
            <mxPoint x="410" y="430" as="sourcePoint" />
            <mxPoint x="495" y="400" as="targetPoint" />
          </mxGeometry>
        </mxCell>
        <mxCell id="JLbmtNQdSOqGrpvgNe5l-52" style="edgeStyle=none;curved=1;rounded=0;orthogonalLoop=1;jettySize=auto;html=1;fontSize=12;startSize=8;endSize=8;startArrow=classic;startFill=1;dashed=1;strokeWidth=2;" edge="1" parent="1" source="JLbmtNQdSOqGrpvgNe5l-37" target="JLbmtNQdSOqGrpvgNe5l-3">
          <mxGeometry relative="1" as="geometry" />
        </mxCell>
        <mxCell id="JLbmtNQdSOqGrpvgNe5l-37" value="&lt;font style=&quot;font-size: 18px;&quot;&gt;Client&lt;/font&gt;" style="swimlane;whiteSpace=wrap;html=1;" vertex="1" parent="1">
          <mxGeometry x="870" y="114" width="260" height="600" as="geometry" />
        </mxCell>
        <mxCell id="JLbmtNQdSOqGrpvgNe5l-47" value="" style="points=[[0.35,0,0],[0.98,0.51,0],[1,0.71,0],[0.67,1,0],[0,0.795,0],[0,0.65,0]];verticalLabelPosition=bottom;sketch=0;html=1;verticalAlign=top;aspect=fixed;align=center;pointerEvents=1;shape=mxgraph.cisco19.user;fillColor=#005073;strokeColor=none;" vertex="1" parent="JLbmtNQdSOqGrpvgNe5l-37">
          <mxGeometry x="37.5" y="192.5" width="75" height="75" as="geometry" />
        </mxCell>
        <mxCell id="JLbmtNQdSOqGrpvgNe5l-49" value="" style="points=[[0.35,0,0],[0.98,0.51,0],[1,0.71,0],[0.67,1,0],[0,0.795,0],[0,0.65,0]];verticalLabelPosition=bottom;sketch=0;html=1;verticalAlign=top;aspect=fixed;align=center;pointerEvents=1;shape=mxgraph.cisco19.user;fillColor=#005073;strokeColor=none;" vertex="1" parent="JLbmtNQdSOqGrpvgNe5l-37">
          <mxGeometry x="147.5" y="190" width="75" height="75" as="geometry" />
        </mxCell>
        <mxCell id="JLbmtNQdSOqGrpvgNe5l-50" value="" style="sketch=0;points=[[0.015,0.015,0],[0.985,0.015,0],[0.985,0.985,0],[0.015,0.985,0],[0.25,0,0],[0.5,0,0],[0.75,0,0],[1,0.25,0],[1,0.5,0],[1,0.75,0],[0.75,1,0],[0.5,1,0],[0.25,1,0],[0,0.75,0],[0,0.5,0],[0,0.25,0]];verticalLabelPosition=bottom;html=1;verticalAlign=top;aspect=fixed;align=center;pointerEvents=1;shape=mxgraph.cisco19.handheld;fillColor=#005073;strokeColor=none;" vertex="1" parent="JLbmtNQdSOqGrpvgNe5l-37">
          <mxGeometry x="45" y="350" width="60" height="80" as="geometry" />
        </mxCell>
        <mxCell id="JLbmtNQdSOqGrpvgNe5l-51" value="" style="sketch=0;points=[[0.015,0.015,0],[0.985,0.015,0],[0.985,0.985,0],[0.015,0.985,0],[0.25,0,0],[0.5,0,0],[0.75,0,0],[1,0.25,0],[1,0.5,0],[1,0.75,0],[0.75,1,0],[0.5,1,0],[0.25,1,0],[0,0.75,0],[0,0.5,0],[0,0.25,0]];verticalLabelPosition=bottom;html=1;verticalAlign=top;aspect=fixed;align=center;pointerEvents=1;shape=mxgraph.cisco19.handheld;fillColor=#005073;strokeColor=none;" vertex="1" parent="JLbmtNQdSOqGrpvgNe5l-37">
          <mxGeometry x="155" y="350" width="60" height="80" as="geometry" />
        </mxCell>
      </root>
    </mxGraphModel>
  </diagram>
</mxfile>
